<?xml version="1.0" encoding="utf-8"?>
<!-- Generator: Adobe Illustrator 24.0.1, SVG Export Plug-In . SVG Version: 6.00 Build 0)  -->
<svg version="1.1" id="Layer_1" xmlns="http://www.w3.org/2000/svg" xmlns:xlink="http://www.w3.org/1999/xlink" x="0px" y="0px"
	 viewBox="0 0 24 24" style="enable-background:new 0 0 24 24;" xml:space="preserve">
<g transform="translate(3 3)">
	<g>
		<path id="data-a_1_" d="M17.9,0v6.9H9.8c-0.1,2-1.4,3.7-3.3,4.3l-0.2,0.1v0.8h0.6v0.6H6.4v3.8c0,0.8-0.6,1.4-1.4,1.4
			c-0.8,0-1.4-0.6-1.4-1.3l0-0.1v-3.8H2.9v-0.6h0.6v-0.8C1.5,10.7,0,8.9,0,6.7c0-2.7,2.2-4.9,4.9-4.9c1.8,0,3.4,1,4.2,2.4l0.1,0.2
			V3.5H11v2.9h0.6v-4h1.7v4h0.6V1.2h1.7v5.2h0.6V0H17.9z M5.8,12.7H4v3.8c0,0.5,0.4,0.9,0.9,0.9c0.4,0,0.8-0.3,0.9-0.8l0-0.1V12.7z
			 M13.3,8.7c1.6,0,3.2,0.7,4.2,2l0.2,0.2l0.3,0.4l-0.3,0.4c-1,1.4-2.7,2.2-4.4,2.2c-1.6,0-3.2-0.7-4.2-2l-0.2-0.2l-0.3-0.4l0.3-0.4
			C9.9,9.5,11.6,8.7,13.3,8.7z M13.3,9.3c-1.1,0-2,0.9-2,2s0.9,2,2,2s2-0.9,2-2S14.4,9.3,13.3,9.3z M15.4,9.7c0.3,0.4,0.5,1,0.5,1.6
			c0,0.6-0.2,1.1-0.5,1.6c0.6-0.3,1.2-0.7,1.7-1.3l0.2-0.2l0-0.1l0-0.1C16.7,10.6,16.1,10.1,15.4,9.7z M11.2,9.7
			C10.6,10,10,10.5,9.5,11l-0.2,0.2l0,0.1l0,0.1c0.5,0.7,1.1,1.2,1.9,1.5c-0.3-0.4-0.5-1-0.5-1.6C10.7,10.7,10.9,10.2,11.2,9.7z
			 M13.3,9.8c0.8,0,1.4,0.6,1.4,1.4s-0.6,1.4-1.4,1.4s-1.4-0.6-1.4-1.4S12.5,9.8,13.3,9.8z M13.3,10.4c-0.5,0-0.9,0.4-0.9,0.9
			c0,0.5,0.4,0.9,0.9,0.9s0.9-0.4,0.9-0.9C14.2,10.8,13.8,10.4,13.3,10.4z M5.8,11.5c-0.3,0.1-0.6,0.1-0.9,0.1c-0.2,0-0.4,0-0.6,0
			l-0.3,0v0.7h1.7V11.5z M4.9,2.3c-2.4,0-4.3,1.9-4.3,4.3S2.5,11,4.9,11S9.3,9,9.3,6.7S7.3,2.3,4.9,2.3z M4.9,2.9
			c2.1,0,3.8,1.7,3.8,3.8S7,10.4,4.9,10.4S1.2,8.7,1.2,6.7S2.8,2.9,4.9,2.9z M4.9,3.5c-1.8,0-3.2,1.4-3.2,3.2s1.4,3.2,3.2,3.2
			s3.2-1.4,3.2-3.2S6.7,3.5,4.9,3.5z M5.2,6.4v0.6H4.6V6.4H5.2z M6.4,6.4v0.6H5.8V6.4H6.4z M7.5,6.4v0.6H6.9V6.4H7.5z M4,6.4v0.6
			H3.5V6.4H4z M2.9,6.4v0.6H2.3V6.4H2.9z M17.3,0.6h-0.6v5.8h0.6V0.6z M15,1.7h-0.6v4.6H15V1.7z M12.7,2.9h-0.6v3.5h0.6V2.9z
			 M10.4,4H9.8v2.3h0.6V4z"/>
	</g>
</g>
</svg>
