<?xml version="1.0" encoding="utf-8"?>
<!-- Generator: Adobe Illustrator 24.0.1, SVG Export Plug-In . SVG Version: 6.00 Build 0)  -->
<svg version="1.1" id="Layer_1" xmlns="http://www.w3.org/2000/svg" xmlns:xlink="http://www.w3.org/1999/xlink" x="0px" y="0px"
	 viewBox="0 0 24 24" style="enable-background:new 0 0 24 24;" xml:space="preserve">
<g transform="translate(2.333 3.333)">
	<g>
		<path id="e-commerce-a_1_" d="M18.5,0.7c0.6,0,1.1,0.5,1.2,1l0,0.1v11.3c0,0.6-0.5,1.1-1,1.2l-0.1,0h-5.6l0.2,1.8H14
			c0.2,0,0.3,0.1,0.3,0.3c0,0.1-0.1,0.2-0.2,0.3l-0.1,0H6.3c-0.2,0-0.3-0.1-0.3-0.3c0-0.1,0.1-0.2,0.2-0.3l0.1,0h0.9l0.2-1.8H1.8
			c-0.6,0-1.1-0.5-1.2-1l0-0.1V1.8c0-0.6,0.5-1.1,1-1.2l0.1,0H18.5z M9,14.3H8l-0.2,1.8h4.7l-0.2-1.8h-1l-0.1,0.4
			c-0.1,0.5-0.5,0.8-1,0.8c-0.4,0-0.8-0.3-1-0.7l0-0.1L9,14.3z M10.7,14.3H9.6l0.1,0.3c0.1,0.2,0.2,0.4,0.5,0.4
			c0.2,0,0.4-0.1,0.4-0.3l0-0.1L10.7,14.3z M18.5,1.2H1.8c-0.3,0-0.6,0.2-0.6,0.5l0,0.1v11.3c0,0.3,0.2,0.6,0.5,0.6l0.1,0h16.6
			c0.3,0,0.6-0.2,0.6-0.5l0-0.1V1.8C19.1,1.5,18.8,1.2,18.5,1.2z M16.4,1.9c0.2,0,0.3,0.1,0.3,0.3c0,0.1-0.1,0.2-0.2,0.3l-0.1,0h-14
			v10.1h0.3c0.2,0,0.3,0.1,0.3,0.3c0,0.1-0.1,0.2-0.2,0.3l-0.1,0H2.1c-0.1,0-0.2-0.1-0.3-0.2l0-0.1V2.1c0-0.1,0.1-0.2,0.2-0.3l0.1,0
			H16.4z M17.6,1.9h0.6c0.1,0,0.2,0.1,0.3,0.2l0,0.1v10.7c0,0.1-0.1,0.2-0.2,0.3l-0.1,0H3.9c-0.2,0-0.3-0.1-0.3-0.3
			c0-0.1,0.1-0.2,0.2-0.3l0.1,0h14V2.4h-0.3c-0.2,0-0.3-0.1-0.3-0.3C17.3,2,17.4,1.9,17.6,1.9L17.6,1.9h0.6H17.6z M5.8,3.8
			C5.8,3.6,6,3.6,6.1,3.7l0,0l0.8,0.5c0.1,0.1,0.2,0.2,0.2,0.3l0,0l0,0l6.5,0.3c0.1,0,0.2,0,0.2,0.1S14,5.1,14,5.2l0,0l-0.5,2.3
			c-0.1,0.5-0.5,0.9-1,0.9l0,0L8.6,8.9c0,0-0.1,0-0.1,0c-0.1,0-0.1,0-0.2,0l0,0L7.9,9.5c0,0,0,0,0,0c0,0,0,0,0,0l0,0h5.2
			c0.2,0,0.3,0.1,0.3,0.3c0,0.1,0,0.2-0.1,0.2c0.1,0.1,0.1,0.2,0.1,0.4c0,0.5-0.4,0.9-0.9,0.9s-0.9-0.4-0.9-0.9c0-0.1,0-0.2,0.1-0.3
			l0,0H9.2c0,0.1,0.1,0.2,0.1,0.3c0,0.5-0.4,0.9-0.9,0.9s-0.9-0.4-0.9-0.9c0-0.2,0-0.3,0.1-0.4c-0.1,0-0.1-0.1-0.1-0.2
			c-0.1-0.2-0.1-0.4,0-0.6l0,0l0.4-0.7C7.7,8.5,7.7,8.4,7.7,8.3l0,0l-1-3.6c0,0,0,0,0,0l0,0L5.8,4.1C5.7,4.1,5.7,3.9,5.8,3.8z
			 M12.5,10.1c-0.2,0-0.3,0.1-0.3,0.3s0.1,0.3,0.3,0.3s0.3-0.1,0.3-0.3C12.8,10.3,12.7,10.1,12.5,10.1z M8.4,10.1
			c-0.2,0-0.3,0.1-0.3,0.3s0.1,0.3,0.3,0.3s0.3-0.1,0.3-0.3S8.5,10.1,8.4,10.1z M8.7,6.9H7.8l0.4,1.2c0,0.1,0.2,0.2,0.3,0.2l0,0
			L9,8.3L8.7,6.9z M10.2,6.9H9.3l0.2,1.4l0.6-0.1V6.9z M11.7,6.9h-1v1.2L11.6,8L11.7,6.9z M13.1,6.9h-0.8l-0.1,1l0.3,0
			c0.3,0,0.5-0.2,0.5-0.5l0,0L13.1,6.9z M7.3,5.1l0.3,1.2h1L8.4,5.1L7.3,5.1z M9,5.2l0.2,1.1h1V5.2L9,5.2z M10.7,5.2v1.1h1l0.1-1
			L10.7,5.2z M12.4,5.3l-0.1,1h0.9l0.2-0.9L12.4,5.3z"/>
	</g>
</g>
</svg>
