<?xml version="1.0" encoding="utf-8"?>
<!-- Generator: Adobe Illustrator 24.0.1, SVG Export Plug-In . SVG Version: 6.00 Build 0)  -->
<svg version="1.1" id="Layer_1" xmlns="http://www.w3.org/2000/svg" xmlns:xlink="http://www.w3.org/1999/xlink" x="0px" y="0px"
	 viewBox="0 0 24 24" style="enable-background:new 0 0 24 24;" xml:space="preserve">
<g transform="translate(3 3)">
	<g>
		<path id="software-a_1_" d="M17.2,3.1h-3.7c-0.1,0-0.3,0.1-0.3,0.3s0.1,0.3,0.3,0.3h3.7c0.2,0,0.3,0.1,0.3,0.3v10.7
			c0,0.2-0.1,0.3-0.3,0.3H0.8c-0.2,0-0.3-0.1-0.3-0.3V4c0-0.2,0.1-0.3,0.3-0.3h5.8v0.6H1.3c-0.1,0-0.3,0.1-0.3,0.3v7.4
			c0,0.2,0.1,0.3,0.3,0.3s0.3-0.1,0.3-0.3V4.8h5v1.5L5.5,6.8C5.4,6.9,5.3,7,5.3,7.1v4.5c0,0.1,0.1,0.2,0.1,0.3l3.4,1.7
			c0.1,0,0.2,0,0.2,0l1.9-1c0.1-0.1,0.2-0.2,0.1-0.4c-0.1-0.1-0.2-0.2-0.4-0.1l-1.5,0.8V9l2.9-1.5v3.9l-0.4,0.2
			c-0.1,0.1-0.2,0.2-0.1,0.4c0.1,0.1,0.2,0.2,0.4,0.1l0.5-0.3c0.1,0,0.1-0.1,0.1-0.3V7.1c0-0.1-0.1-0.2-0.1-0.3l-1.1-0.6V4.8h5v9.1
			H1.6v-0.8c0-0.2-0.1-0.3-0.3-0.3s-0.3,0.1-0.3,0.3v1.1c0,0.2,0.1,0.3,0.3,0.3h15.4c0.1,0,0.3-0.1,0.3-0.3V4.5
			c0-0.2-0.1-0.3-0.3-0.3h-5.3V3.7h1c0.1,0,0.3-0.1,0.3-0.3s-0.1-0.3-0.3-0.3h-1V2.6h2.4c0.1,0,0.3-0.1,0.3-0.3V1.6
			c0.3-0.1,0.5-0.4,0.5-0.8c0-0.5-0.4-0.8-0.8-0.8S13,0.4,13,0.8c0,0.4,0.2,0.7,0.5,0.8V2h-2.4c-0.1,0-0.3,0.1-0.3,0.3v0.8H9.3V1.6
			c0.3-0.1,0.5-0.4,0.5-0.8C9.8,0.4,9.4,0,9,0S8.2,0.4,8.2,0.8c0,0.4,0.2,0.7,0.5,0.8v1.5H7.1V2.3C7.1,2.1,7,2,6.9,2H4.5V1.6
			C4.8,1.5,5,1.2,5,0.8C5,0.4,4.7,0,4.2,0S3.4,0.4,3.4,0.8c0,0.4,0.2,0.7,0.5,0.8v0.7c0,0.2,0.1,0.3,0.3,0.3h2.4v0.6H0.8
			C0.4,3.1,0,3.5,0,4v10.7c0,0.5,0.4,0.9,0.8,0.9h5.7c-0.1,1-0.7,1.6-0.9,1.8H4.5c-0.4,0-0.8,0.4-0.8,0.8S4,19,4.5,19h9.1
			c0.4,0,0.8-0.4,0.8-0.8s-0.4-0.8-0.8-0.8h-1.1c-0.2-0.2-0.8-0.8-0.9-1.8h5.7c0.4,0,0.8-0.4,0.8-0.9V4C18,3.5,17.6,3.1,17.2,3.1z
			 M13.8,0.6c0.1,0,0.3,0.1,0.3,0.3s-0.1,0.3-0.3,0.3S13.5,1,13.5,0.8S13.6,0.6,13.8,0.6z M9,0.6c0.1,0,0.3,0.1,0.3,0.3
			S9.1,1.1,9,1.1S8.7,1,8.7,0.8S8.9,0.6,9,0.6z M4.2,0.6c0.1,0,0.3,0.1,0.3,0.3S4.4,1.1,4.2,1.1S4,1,4,0.8S4.1,0.6,4.2,0.6z
			 M7.1,4.8h1.6v0.4L7.1,6V4.8z M11.8,7.1L9,8.5L6.2,7.1L9,5.7L11.8,7.1z M5.9,7.5L8.7,9v3.9l-2.9-1.5V7.5z M10.9,6L9.3,5.2V4.8h1.6
			V6z M10.9,3.7v0.6H9.3V3.7H10.9z M8.7,3.7v0.6H7.1V3.7H8.7z M13.8,18.2c0,0.2-0.1,0.3-0.3,0.3H4.5c-0.1,0-0.3-0.1-0.3-0.3
			s0.1-0.3,0.3-0.3h9.1C13.7,17.9,13.8,18,13.8,18.2z M11.7,17.3H6.3c0.3-0.4,0.7-1,0.7-1.8h3.9C11,16.4,11.4,16.9,11.7,17.3z"/>
	</g>
</g>
</svg>
