<?xml version="1.0" encoding="utf-8"?>
<!-- Generator: Adobe Illustrator 24.0.1, SVG Export Plug-In . SVG Version: 6.00 Build 0)  -->
<svg version="1.1" id="Layer_1" xmlns="http://www.w3.org/2000/svg" xmlns:xlink="http://www.w3.org/1999/xlink" x="0px" y="0px"
	 viewBox="0 0 24 24" style="enable-background:new 0 0 24 24;" xml:space="preserve">
<style type="text/css">
	.st0{fill:#FFFFFF;}
</style>
<g>
	<g>
		<path id="vr-and-ar-a_1_" class="st0" d="M20.3,18.1c-0.4-0.2-0.9-0.3-1.5-0.4c-0.3-0.1-0.4,0.5-0.1,0.5c1.5,0.3,1.7,0.6,1.8,0.6
			c-0.1,0.1-0.6,0.5-2.5,0.7c-0.1,0-0.3,0-0.4,0.1v-3.7c0.4-0.2,0.8-0.7,1.2-1.5c0.4-0.8,0.7-1.8,0.9-2.8c0.2-1.3,0.1-2.6-0.3-3.8
			c-0.4-1.4-1.3-2.6-2.5-3.5c-0.8-0.7-1.9-1.1-3.1-1.2c-1-0.1-2.1-0.1-3.3,0.1c-2.1,0.3-3.7,1-3.7,1c-0.1,0-0.2,0.2-0.2,0.3
			c0.1,0.4,0.3,0.8,0.4,1C6.4,5.7,5.7,5.7,5.6,5.7S5.3,5.8,5.4,6c0.2,0.7,0.5,1.3,1,1.7c-0.2,0.7-0.2,1.4-0.1,2
			c-0.6,0.3-1,0.9-1,1.6v1.9c0,1,0.7,1.7,1.7,1.8c0.3,1,0.8,1.9,1.6,2.5s1.7,1,2.7,1v1.4c-2,0-3.8-0.2-5.3-0.4
			c-1.9-0.3-2.4-0.6-2.5-0.7c0.1-0.1,0.6-0.5,2.4-0.7l-0.3,0.6C5.4,19,5.9,19.3,6.1,19l0.6-1c0.2-0.1,0.1-0.4,0-0.5l-1.1-0.7
			C5.3,16.6,5,17,5.3,17.2l0.5,0.4C3.3,17.9,3,18.4,3,18.8c0,0.3,0.3,0.8,2.8,1.2c1.5,0.2,3.4,0.4,5.5,0.4v0.3c0,0.3,0.5,0.3,0.5,0
			v-0.3c0.1,0,0.1,0,0.2,0c1.8,0,3.6-0.1,5-0.3v0.6c0,0.3,0.5,0.3,0.5,0v-0.6c0.2,0,0.5-0.1,0.7-0.1c2.5-0.4,2.8-0.9,2.8-1.2
			C21,18.4,20.5,18.1,20.3,18.1L20.3,18.1z M6,6.2c0.4,0,1-0.1,1.5-0.3c0.1-0.1,0.2-0.3,0.1-0.4c0,0-0.3-0.4-0.4-0.9
			C7.7,4.4,9,4,10.5,3.7c1.2-0.2,2.2-0.2,3.2-0.1c1.2,0.1,2.1,0.5,2.9,1.1c2.7,2.2,2.8,5.2,2.5,6.8c-0.1,0.9-0.4,1.9-0.8,2.6
			c-0.3,0.5-0.6,0.9-0.9,1.2l0,0c-0.2-0.3-0.6-1.2-0.7-3.1c-0.1-1.6-0.8-2.8-2-3.6s-2.5-0.9-3.3-0.9C9.6,7.7,6.8,8.5,6,6.2z
			 M14.4,13.4c-0.3,0-0.5-0.2-0.5-0.5v-1.5c0-0.3,0.2-0.5,0.5-0.5h0.2c0.3,0,0.5,0.2,0.5,0.5v1.5c0,0.3-0.2,0.5-0.5,0.5H14.4z
			 M14.6,10.4h-0.2h-0.1c-0.3-0.5-0.9-0.9-1.6-0.9H7.5C7.6,9.1,7.7,8.7,8,8.3c0.8,0.1,1.6,0,2.3,0c0.3,0,0.6-0.1,0.9-0.1
			c0.7,0,2.1,0.1,3.2,0.8c0.8,0.5,1.4,1.3,1.6,2.3h-0.4l0,0C15.6,10.8,15.2,10.4,14.6,10.4L14.6,10.4z M15.6,11.9h0.5
			c0,0.1,0,0.2,0,0.4h-0.5V11.9z M6.8,8C7,8.1,7.2,8.2,7.4,8.2C7.2,8.6,7,9.1,6.9,9.5c-0.1,0-0.1,0-0.2,0C6.7,9,6.7,8.5,6.8,8z
			 M5.8,13.2v-1.9C5.8,10.6,6.4,10,7,10h5.7c0.4,0,0.8,0.2,1.1,0.5c-0.2,0.2-0.4,0.5-0.4,0.8v1.5c0,0.4,0.2,0.7,0.5,0.9
			c-0.2,0.4-0.7,0.7-1.2,0.7H7C6.4,14.4,5.8,13.9,5.8,13.2L5.8,13.2z M12,19.9c-0.1,0-0.1,0-0.2,0v-1.4c1.6-0.1,3-1.2,3.5-2.7
			c0.1-0.3-0.4-0.5-0.5-0.2C14.3,17.1,13,18,11.6,18c-1,0-1.9-0.3-2.7-0.9c-0.7-0.5-1.2-1.3-1.4-2.1h5.2c0.7,0,1.4-0.4,1.7-1.1h0.2
			c0.5,0,1-0.4,1-1v-0.1h0.6c0.2,1.8,0.6,2.7,0.9,3v3.9C15.6,19.8,13.8,19.9,12,19.9L12,19.9z"/>
	</g>
</g>
</svg>
